<mxfile host="65bd71144e">
    <diagram id="3CGOplF_25yKbEWaD3JT" name="ca">
        <mxGraphModel dx="704" dy="551" grid="0" gridSize="10" guides="1" tooltips="1" connect="1" arrows="1" fold="1" page="1" pageScale="1" pageWidth="850" pageHeight="1100" math="0" shadow="0">
            <root>
                <mxCell id="0"/>
                <mxCell id="1" parent="0"/>
                <mxCell id="2" value="Staff" style="shape=umlActor;verticalLabelPosition=bottom;verticalAlign=top;html=1;" parent="1" vertex="1">
                    <mxGeometry x="45" y="96" width="30" height="60" as="geometry"/>
                </mxCell>
                <mxCell id="89" value="Doctor" style="shape=umlActor;verticalLabelPosition=bottom;verticalAlign=top;html=1;" vertex="1" parent="1">
                    <mxGeometry x="340" y="96" width="30" height="60" as="geometry"/>
                </mxCell>
                <mxCell id="90" value="Admin" style="shape=umlActor;verticalLabelPosition=bottom;verticalAlign=top;html=1;" vertex="1" parent="1">
                    <mxGeometry x="417" y="96" width="30" height="60" as="geometry"/>
                </mxCell>
                <mxCell id="91" value="Xem thông tin phòng khám" style="ellipse;whiteSpace=wrap;html=1;" vertex="1" parent="1">
                    <mxGeometry x="141" y="51" width="140" height="70" as="geometry"/>
                </mxCell>
                <mxCell id="92" value="Chỉnh sửa thông tin phòng khám" style="ellipse;whiteSpace=wrap;html=1;" vertex="1" parent="1">
                    <mxGeometry x="138" y="138" width="140" height="70" as="geometry"/>
                </mxCell>
                <mxCell id="93" value="" style="endArrow=none;startArrow=none;endFill=0;startFill=0;endSize=8;html=1;verticalAlign=bottom;labelBackgroundColor=none;strokeWidth=3;exitX=1;exitY=0.3333333333333333;exitDx=0;exitDy=0;exitPerimeter=0;entryX=0;entryY=0.5;entryDx=0;entryDy=0;" edge="1" parent="1" source="2" target="91">
                    <mxGeometry width="160" relative="1" as="geometry">
                        <mxPoint x="51" y="231" as="sourcePoint"/>
                        <mxPoint x="211" y="231" as="targetPoint"/>
                    </mxGeometry>
                </mxCell>
                <mxCell id="94" value="" style="endArrow=none;startArrow=none;endFill=0;startFill=0;endSize=8;html=1;verticalAlign=bottom;labelBackgroundColor=none;strokeWidth=3;exitX=1;exitY=0.3333333333333333;exitDx=0;exitDy=0;exitPerimeter=0;entryX=0;entryY=0.5;entryDx=0;entryDy=0;" edge="1" parent="1" source="2" target="92">
                    <mxGeometry width="160" relative="1" as="geometry">
                        <mxPoint x="177" y="242" as="sourcePoint"/>
                        <mxPoint x="337" y="242" as="targetPoint"/>
                    </mxGeometry>
                </mxCell>
                <mxCell id="95" value="" style="endArrow=none;startArrow=none;endFill=0;startFill=0;endSize=8;html=1;verticalAlign=bottom;labelBackgroundColor=none;strokeWidth=3;exitX=1;exitY=0.5;exitDx=0;exitDy=0;entryX=0;entryY=0.3333333333333333;entryDx=0;entryDy=0;entryPerimeter=0;" edge="1" parent="1" source="91" target="89">
                    <mxGeometry width="160" relative="1" as="geometry">
                        <mxPoint x="177" y="242" as="sourcePoint"/>
                        <mxPoint x="337" y="242" as="targetPoint"/>
                    </mxGeometry>
                </mxCell>
                <mxCell id="96" value="" style="endArrow=none;startArrow=none;endFill=0;startFill=0;endSize=8;html=1;verticalAlign=bottom;labelBackgroundColor=none;strokeWidth=3;exitX=1;exitY=0.5;exitDx=0;exitDy=0;entryX=0;entryY=0.3333333333333333;entryDx=0;entryDy=0;entryPerimeter=0;" edge="1" parent="1" source="92" target="89">
                    <mxGeometry width="160" relative="1" as="geometry">
                        <mxPoint x="177" y="242" as="sourcePoint"/>
                        <mxPoint x="337" y="242" as="targetPoint"/>
                    </mxGeometry>
                </mxCell>
                <mxCell id="97" value="Quản lý thông tin phòng khám" style="text;align=center;fontStyle=1;verticalAlign=middle;spacingLeft=3;spacingRight=3;strokeColor=none;rotatable=0;points=[[0,0.5],[1,0.5]];portConstraint=eastwest;" vertex="1" parent="1">
                    <mxGeometry x="181" y="217" width="80" height="26" as="geometry"/>
                </mxCell>
                <mxCell id="98" value="Staff" style="shape=umlActor;verticalLabelPosition=bottom;verticalAlign=top;html=1;" vertex="1" parent="1">
                    <mxGeometry x="45" y="331" width="30" height="60" as="geometry"/>
                </mxCell>
                <mxCell id="99" value="Doctor" style="shape=umlActor;verticalLabelPosition=bottom;verticalAlign=top;html=1;" vertex="1" parent="1">
                    <mxGeometry x="472" y="331" width="30" height="60" as="geometry"/>
                </mxCell>
                <mxCell id="100" value="Admin" style="shape=umlActor;verticalLabelPosition=bottom;verticalAlign=top;html=1;" vertex="1" parent="1">
                    <mxGeometry x="472" y="485" width="30" height="60" as="geometry"/>
                </mxCell>
                <mxCell id="101" value="Đăng ký nhân viên mới" style="ellipse;whiteSpace=wrap;html=1;" vertex="1" parent="1">
                    <mxGeometry x="156" y="331" width="140" height="70" as="geometry"/>
                </mxCell>
                <mxCell id="102" value="Xem hồ sơ nhân viên" style="ellipse;whiteSpace=wrap;html=1;" vertex="1" parent="1">
                    <mxGeometry x="156" y="415" width="140" height="70" as="geometry"/>
                </mxCell>
                <mxCell id="103" value="Chỉnh sửa hồ sơ nhân viên" style="ellipse;whiteSpace=wrap;html=1;" vertex="1" parent="1">
                    <mxGeometry x="159" y="499" width="140" height="70" as="geometry"/>
                </mxCell>
                <mxCell id="104" value="" style="endArrow=none;startArrow=none;endFill=0;startFill=0;endSize=8;html=1;verticalAlign=bottom;labelBackgroundColor=none;strokeWidth=3;exitX=1;exitY=0.3333333333333333;exitDx=0;exitDy=0;exitPerimeter=0;entryX=0;entryY=0.5;entryDx=0;entryDy=0;" edge="1" parent="1" source="98" target="101">
                    <mxGeometry width="160" relative="1" as="geometry">
                        <mxPoint x="248" y="342" as="sourcePoint"/>
                        <mxPoint x="408" y="342" as="targetPoint"/>
                    </mxGeometry>
                </mxCell>
                <mxCell id="105" value="" style="endArrow=none;startArrow=none;endFill=0;startFill=0;endSize=8;html=1;verticalAlign=bottom;labelBackgroundColor=none;strokeWidth=3;exitX=1;exitY=0.3333333333333333;exitDx=0;exitDy=0;exitPerimeter=0;entryX=0;entryY=0.5;entryDx=0;entryDy=0;" edge="1" parent="1" source="98" target="102">
                    <mxGeometry width="160" relative="1" as="geometry">
                        <mxPoint x="248" y="342" as="sourcePoint"/>
                        <mxPoint x="408" y="342" as="targetPoint"/>
                    </mxGeometry>
                </mxCell>
                <mxCell id="106" value="" style="endArrow=none;startArrow=none;endFill=0;startFill=0;endSize=8;html=1;verticalAlign=bottom;labelBackgroundColor=none;strokeWidth=3;exitX=1;exitY=0.3333333333333333;exitDx=0;exitDy=0;exitPerimeter=0;entryX=0;entryY=0.5;entryDx=0;entryDy=0;" edge="1" parent="1" source="98" target="103">
                    <mxGeometry width="160" relative="1" as="geometry">
                        <mxPoint x="248" y="342" as="sourcePoint"/>
                        <mxPoint x="408" y="342" as="targetPoint"/>
                    </mxGeometry>
                </mxCell>
                <mxCell id="107" value="Thay đổi mật khẩu" style="ellipse;whiteSpace=wrap;html=1;" vertex="1" parent="1">
                    <mxGeometry x="49" y="583" width="140" height="70" as="geometry"/>
                </mxCell>
                <mxCell id="108" value="&amp;lt;&amp;lt;extend&amp;gt;&amp;gt;" style="html=1;verticalAlign=bottom;labelBackgroundColor=none;endArrow=open;endFill=0;dashed=1;exitX=0.5;exitY=0;exitDx=0;exitDy=0;entryX=0;entryY=1;entryDx=0;entryDy=0;" edge="1" parent="1" source="107" target="103">
                    <mxGeometry width="160" relative="1" as="geometry">
                        <mxPoint x="248" y="467" as="sourcePoint"/>
                        <mxPoint x="408" y="467" as="targetPoint"/>
                    </mxGeometry>
                </mxCell>
                <mxCell id="109" value="" style="endArrow=none;startArrow=none;endFill=0;startFill=0;endSize=8;html=1;verticalAlign=bottom;labelBackgroundColor=none;strokeWidth=3;entryX=0;entryY=0.3333333333333333;entryDx=0;entryDy=0;entryPerimeter=0;exitX=1;exitY=0.5;exitDx=0;exitDy=0;" edge="1" parent="1" source="102" target="100">
                    <mxGeometry width="160" relative="1" as="geometry">
                        <mxPoint x="248" y="467" as="sourcePoint"/>
                        <mxPoint x="408" y="467" as="targetPoint"/>
                    </mxGeometry>
                </mxCell>
                <mxCell id="111" value="" style="endArrow=none;startArrow=none;endFill=0;startFill=0;endSize=8;html=1;verticalAlign=bottom;labelBackgroundColor=none;strokeWidth=3;exitX=1;exitY=0.5;exitDx=0;exitDy=0;entryX=0;entryY=0.3333333333333333;entryDx=0;entryDy=0;entryPerimeter=0;" edge="1" parent="1" source="101" target="100">
                    <mxGeometry width="160" relative="1" as="geometry">
                        <mxPoint x="311" y="426" as="sourcePoint"/>
                        <mxPoint x="471" y="426" as="targetPoint"/>
                    </mxGeometry>
                </mxCell>
                <mxCell id="112" value="" style="endArrow=none;startArrow=none;endFill=0;startFill=0;endSize=8;html=1;verticalAlign=bottom;labelBackgroundColor=none;strokeWidth=3;exitX=1;exitY=0.5;exitDx=0;exitDy=0;entryX=0;entryY=0.3333333333333333;entryDx=0;entryDy=0;entryPerimeter=0;" edge="1" parent="1" source="102" target="100">
                    <mxGeometry width="160" relative="1" as="geometry">
                        <mxPoint x="248" y="467" as="sourcePoint"/>
                        <mxPoint x="408" y="467" as="targetPoint"/>
                    </mxGeometry>
                </mxCell>
                <mxCell id="113" value="" style="endArrow=none;startArrow=none;endFill=0;startFill=0;endSize=8;html=1;verticalAlign=bottom;labelBackgroundColor=none;strokeWidth=3;exitX=1;exitY=0.5;exitDx=0;exitDy=0;entryX=0;entryY=0.3333333333333333;entryDx=0;entryDy=0;entryPerimeter=0;" edge="1" parent="1" source="103" target="100">
                    <mxGeometry width="160" relative="1" as="geometry">
                        <mxPoint x="248" y="467" as="sourcePoint"/>
                        <mxPoint x="408" y="467" as="targetPoint"/>
                    </mxGeometry>
                </mxCell>
                <mxCell id="114" value="Xóa hồ sơ nhân viên" style="ellipse;whiteSpace=wrap;html=1;" vertex="1" parent="1">
                    <mxGeometry x="270" y="583" width="140" height="70" as="geometry"/>
                </mxCell>
                <mxCell id="115" value="Đặt lại mật khẩu đăng nhập" style="ellipse;whiteSpace=wrap;html=1;" vertex="1" parent="1">
                    <mxGeometry x="272" y="667" width="140" height="70" as="geometry"/>
                </mxCell>
                <mxCell id="117" value="" style="endArrow=none;startArrow=none;endFill=0;startFill=0;endSize=8;html=1;verticalAlign=bottom;labelBackgroundColor=none;strokeWidth=3;exitX=1;exitY=0.5;exitDx=0;exitDy=0;entryX=0;entryY=0.3333333333333333;entryDx=0;entryDy=0;entryPerimeter=0;" edge="1" parent="1" source="101" target="99">
                    <mxGeometry width="160" relative="1" as="geometry">
                        <mxPoint x="314" y="474" as="sourcePoint"/>
                        <mxPoint x="474" y="474" as="targetPoint"/>
                    </mxGeometry>
                </mxCell>
                <mxCell id="118" value="" style="endArrow=none;startArrow=none;endFill=0;startFill=0;endSize=8;html=1;verticalAlign=bottom;labelBackgroundColor=none;strokeWidth=3;exitX=1;exitY=0.5;exitDx=0;exitDy=0;entryX=0;entryY=0.3333333333333333;entryDx=0;entryDy=0;entryPerimeter=0;" edge="1" parent="1" source="102" target="99">
                    <mxGeometry width="160" relative="1" as="geometry">
                        <mxPoint x="314" y="474" as="sourcePoint"/>
                        <mxPoint x="474" y="474" as="targetPoint"/>
                    </mxGeometry>
                </mxCell>
                <mxCell id="119" value="" style="endArrow=none;startArrow=none;endFill=0;startFill=0;endSize=8;html=1;verticalAlign=bottom;labelBackgroundColor=none;strokeWidth=3;exitX=1;exitY=0.5;exitDx=0;exitDy=0;entryX=0;entryY=0.3333333333333333;entryDx=0;entryDy=0;entryPerimeter=0;" edge="1" parent="1" source="103" target="99">
                    <mxGeometry width="160" relative="1" as="geometry">
                        <mxPoint x="314" y="474" as="sourcePoint"/>
                        <mxPoint x="464" y="441" as="targetPoint"/>
                    </mxGeometry>
                </mxCell>
                <mxCell id="120" value="" style="endArrow=none;startArrow=none;endFill=0;startFill=0;endSize=8;html=1;verticalAlign=bottom;labelBackgroundColor=none;strokeWidth=3;exitX=1;exitY=0.5;exitDx=0;exitDy=0;entryX=0;entryY=0.3333333333333333;entryDx=0;entryDy=0;entryPerimeter=0;" edge="1" parent="1" source="114" target="100">
                    <mxGeometry width="160" relative="1" as="geometry">
                        <mxPoint x="314" y="474" as="sourcePoint"/>
                        <mxPoint x="474" y="474" as="targetPoint"/>
                    </mxGeometry>
                </mxCell>
                <mxCell id="125" value="" style="endArrow=none;startArrow=none;endFill=0;startFill=0;endSize=8;html=1;verticalAlign=bottom;labelBackgroundColor=none;strokeWidth=3;entryX=0;entryY=0.3333333333333333;entryDx=0;entryDy=0;entryPerimeter=0;exitX=1;exitY=0.5;exitDx=0;exitDy=0;" edge="1" parent="1" source="115" target="100">
                    <mxGeometry width="160" relative="1" as="geometry">
                        <mxPoint x="357" y="591" as="sourcePoint"/>
                        <mxPoint x="517" y="591" as="targetPoint"/>
                    </mxGeometry>
                </mxCell>
                <mxCell id="126" value="Quản lý hồ sơ nhân viên" style="text;align=center;fontStyle=1;verticalAlign=middle;spacingLeft=3;spacingRight=3;strokeColor=none;rotatable=0;points=[[0,0.5],[1,0.5]];portConstraint=eastwest;" vertex="1" parent="1">
                    <mxGeometry x="198" y="751" width="80" height="26" as="geometry"/>
                </mxCell>
                <mxCell id="127" value="Staff" style="shape=umlActor;verticalLabelPosition=bottom;verticalAlign=top;html=1;" vertex="1" parent="1">
                    <mxGeometry x="45" y="917" width="30" height="60" as="geometry"/>
                </mxCell>
                <mxCell id="128" value="Doctor" style="shape=umlActor;verticalLabelPosition=bottom;verticalAlign=top;html=1;" vertex="1" parent="1">
                    <mxGeometry x="389" y="917" width="30" height="60" as="geometry"/>
                </mxCell>
                <mxCell id="129" value="Admin" style="shape=umlActor;verticalLabelPosition=bottom;verticalAlign=top;html=1;" vertex="1" parent="1">
                    <mxGeometry x="447" y="920" width="30" height="60" as="geometry"/>
                </mxCell>
                <mxCell id="130" value="Thêm sản phẩm" style="ellipse;whiteSpace=wrap;html=1;" vertex="1" parent="1">
                    <mxGeometry x="141" y="847" width="140" height="70" as="geometry"/>
                </mxCell>
                <mxCell id="131" value="Xem chi tiêt sản phẩm" style="ellipse;whiteSpace=wrap;html=1;" vertex="1" parent="1">
                    <mxGeometry x="141" y="937" width="140" height="70" as="geometry"/>
                </mxCell>
                <mxCell id="132" value="Chỉnh sửa chi tiết sản phẩm" style="ellipse;whiteSpace=wrap;html=1;" vertex="1" parent="1">
                    <mxGeometry x="138" y="1017" width="140" height="70" as="geometry"/>
                </mxCell>
                <mxCell id="133" value="Xóa sản phẩm" style="ellipse;whiteSpace=wrap;html=1;" vertex="1" parent="1">
                    <mxGeometry x="138" y="1106" width="140" height="70" as="geometry"/>
                </mxCell>
                <mxCell id="136" value="" style="endArrow=none;startArrow=none;endFill=0;startFill=0;endSize=8;html=1;verticalAlign=bottom;labelBackgroundColor=none;strokeWidth=3;exitX=1;exitY=0.5;exitDx=0;exitDy=0;entryX=0;entryY=0.3333333333333333;entryDx=0;entryDy=0;entryPerimeter=0;" edge="1" parent="1" source="130" target="128">
                    <mxGeometry width="160" relative="1" as="geometry">
                        <mxPoint x="255" y="962" as="sourcePoint"/>
                        <mxPoint x="415" y="962" as="targetPoint"/>
                    </mxGeometry>
                </mxCell>
                <mxCell id="137" value="" style="endArrow=none;startArrow=none;endFill=0;startFill=0;endSize=8;html=1;verticalAlign=bottom;labelBackgroundColor=none;strokeWidth=3;exitX=1;exitY=0.5;exitDx=0;exitDy=0;entryX=0;entryY=0.3333333333333333;entryDx=0;entryDy=0;entryPerimeter=0;" edge="1" parent="1" source="131" target="128">
                    <mxGeometry width="160" relative="1" as="geometry">
                        <mxPoint x="255" y="962" as="sourcePoint"/>
                        <mxPoint x="415" y="962" as="targetPoint"/>
                    </mxGeometry>
                </mxCell>
                <mxCell id="138" value="" style="endArrow=none;startArrow=none;endFill=0;startFill=0;endSize=8;html=1;verticalAlign=bottom;labelBackgroundColor=none;strokeWidth=3;exitX=1;exitY=0.5;exitDx=0;exitDy=0;entryX=0;entryY=0.3333333333333333;entryDx=0;entryDy=0;entryPerimeter=0;" edge="1" parent="1" source="132" target="128">
                    <mxGeometry width="160" relative="1" as="geometry">
                        <mxPoint x="255" y="962" as="sourcePoint"/>
                        <mxPoint x="415" y="962" as="targetPoint"/>
                    </mxGeometry>
                </mxCell>
                <mxCell id="139" value="" style="endArrow=none;startArrow=none;endFill=0;startFill=0;endSize=8;html=1;verticalAlign=bottom;labelBackgroundColor=none;strokeWidth=3;exitX=1;exitY=0.5;exitDx=0;exitDy=0;entryX=0;entryY=0.3333333333333333;entryDx=0;entryDy=0;entryPerimeter=0;" edge="1" parent="1" source="133" target="128">
                    <mxGeometry width="160" relative="1" as="geometry">
                        <mxPoint x="255" y="962" as="sourcePoint"/>
                        <mxPoint x="415" y="962" as="targetPoint"/>
                    </mxGeometry>
                </mxCell>
                <mxCell id="140" value="" style="endArrow=none;startArrow=none;endFill=0;startFill=0;endSize=8;html=1;verticalAlign=bottom;labelBackgroundColor=none;strokeWidth=3;exitX=1;exitY=0.3333333333333333;exitDx=0;exitDy=0;exitPerimeter=0;entryX=0;entryY=0.5;entryDx=0;entryDy=0;" edge="1" parent="1" source="127" target="130">
                    <mxGeometry width="160" relative="1" as="geometry">
                        <mxPoint x="255" y="962" as="sourcePoint"/>
                        <mxPoint x="415" y="962" as="targetPoint"/>
                    </mxGeometry>
                </mxCell>
                <mxCell id="141" value="" style="endArrow=none;startArrow=none;endFill=0;startFill=0;endSize=8;html=1;verticalAlign=bottom;labelBackgroundColor=none;strokeWidth=3;exitX=1;exitY=0.3333333333333333;exitDx=0;exitDy=0;exitPerimeter=0;entryX=0;entryY=0.5;entryDx=0;entryDy=0;" edge="1" parent="1" source="127" target="131">
                    <mxGeometry width="160" relative="1" as="geometry">
                        <mxPoint x="255" y="962" as="sourcePoint"/>
                        <mxPoint x="415" y="962" as="targetPoint"/>
                    </mxGeometry>
                </mxCell>
                <mxCell id="142" value="" style="endArrow=none;startArrow=none;endFill=0;startFill=0;endSize=8;html=1;verticalAlign=bottom;labelBackgroundColor=none;strokeWidth=3;exitX=1;exitY=0.3333333333333333;exitDx=0;exitDy=0;exitPerimeter=0;entryX=0;entryY=0.5;entryDx=0;entryDy=0;" edge="1" parent="1" source="127" target="132">
                    <mxGeometry width="160" relative="1" as="geometry">
                        <mxPoint x="255" y="962" as="sourcePoint"/>
                        <mxPoint x="415" y="962" as="targetPoint"/>
                    </mxGeometry>
                </mxCell>
                <mxCell id="143" value="" style="endArrow=none;startArrow=none;endFill=0;startFill=0;endSize=8;html=1;verticalAlign=bottom;labelBackgroundColor=none;strokeWidth=3;exitX=1;exitY=0.3333333333333333;exitDx=0;exitDy=0;exitPerimeter=0;entryX=0;entryY=0.5;entryDx=0;entryDy=0;" edge="1" parent="1" source="127" target="133">
                    <mxGeometry width="160" relative="1" as="geometry">
                        <mxPoint x="255" y="962" as="sourcePoint"/>
                        <mxPoint x="415" y="962" as="targetPoint"/>
                    </mxGeometry>
                </mxCell>
                <mxCell id="144" value="Quản lý hàng tồn kho" style="text;align=center;fontStyle=1;verticalAlign=middle;spacingLeft=3;spacingRight=3;strokeColor=none;rotatable=0;points=[[0,0.5],[1,0.5]];portConstraint=eastwest;" vertex="1" parent="1">
                    <mxGeometry x="181" y="1195" width="80" height="26" as="geometry"/>
                </mxCell>
                <mxCell id="145" value="Staff" style="shape=umlActor;verticalLabelPosition=bottom;verticalAlign=top;html=1;" vertex="1" parent="1">
                    <mxGeometry x="652" y="84" width="30" height="60" as="geometry"/>
                </mxCell>
                <mxCell id="146" value="Doctor" style="shape=umlActor;verticalLabelPosition=bottom;verticalAlign=top;html=1;" vertex="1" parent="1">
                    <mxGeometry x="710" y="84" width="30" height="60" as="geometry"/>
                </mxCell>
                <mxCell id="147" value="Admin" style="shape=umlActor;verticalLabelPosition=bottom;verticalAlign=top;html=1;" vertex="1" parent="1">
                    <mxGeometry x="710" y="213" width="30" height="60" as="geometry"/>
                </mxCell>
                <mxCell id="149" value="Đăng ký bệnh nhân mới" style="ellipse;whiteSpace=wrap;html=1;" vertex="1" parent="1">
                    <mxGeometry x="822" y="36" width="140" height="70" as="geometry"/>
                </mxCell>
                <mxCell id="150" value="Quản lý hồ sơ bệnh nhân" style="text;align=center;fontStyle=1;verticalAlign=middle;spacingLeft=3;spacingRight=3;strokeColor=none;rotatable=0;points=[[0,0.5],[1,0.5]];portConstraint=eastwest;" vertex="1" parent="1">
                    <mxGeometry x="864" y="385" width="80" height="26" as="geometry"/>
                </mxCell>
                <mxCell id="151" value="Xem hồ sơ bệnh nhân" style="ellipse;whiteSpace=wrap;html=1;" vertex="1" parent="1">
                    <mxGeometry x="822" y="124" width="140" height="70" as="geometry"/>
                </mxCell>
                <mxCell id="152" value="Chỉnh sửa hồ sơ bệnh nhân" style="ellipse;whiteSpace=wrap;html=1;" vertex="1" parent="1">
                    <mxGeometry x="822" y="211" width="140" height="70" as="geometry"/>
                </mxCell>
                <mxCell id="153" value="Xóa hồ sơ bệnh nhân" style="ellipse;whiteSpace=wrap;html=1;" vertex="1" parent="1">
                    <mxGeometry x="822" y="298" width="140" height="70" as="geometry"/>
                </mxCell>
                <mxCell id="155" value="In thẻ hội viên bệnh nhân" style="ellipse;whiteSpace=wrap;html=1;" vertex="1" parent="1">
                    <mxGeometry x="1046" y="12" width="140" height="70" as="geometry"/>
                </mxCell>
                <mxCell id="156" value="In báo cáo phòng khám" style="ellipse;whiteSpace=wrap;html=1;" vertex="1" parent="1">
                    <mxGeometry x="1048" y="96" width="140" height="70" as="geometry"/>
                </mxCell>
                <mxCell id="157" value="In hóa đơn" style="ellipse;whiteSpace=wrap;html=1;" vertex="1" parent="1">
                    <mxGeometry x="1052" y="181" width="140" height="70" as="geometry"/>
                </mxCell>
                <mxCell id="158" value="" style="endArrow=none;startArrow=none;endFill=0;startFill=0;endSize=8;html=1;verticalAlign=bottom;labelBackgroundColor=none;strokeWidth=3;exitX=1;exitY=0.3333333333333333;exitDx=0;exitDy=0;exitPerimeter=0;entryX=0;entryY=0.5;entryDx=0;entryDy=0;" edge="1" parent="1" source="146" target="149">
                    <mxGeometry width="160" relative="1" as="geometry">
                        <mxPoint x="938" y="221" as="sourcePoint"/>
                        <mxPoint x="1098" y="221" as="targetPoint"/>
                    </mxGeometry>
                </mxCell>
                <mxCell id="159" value="" style="endArrow=none;startArrow=none;endFill=0;startFill=0;endSize=8;html=1;verticalAlign=bottom;labelBackgroundColor=none;strokeWidth=3;exitX=1;exitY=0.3333333333333333;exitDx=0;exitDy=0;exitPerimeter=0;entryX=0;entryY=0.5;entryDx=0;entryDy=0;" edge="1" parent="1" source="146" target="151">
                    <mxGeometry width="160" relative="1" as="geometry">
                        <mxPoint x="938" y="221" as="sourcePoint"/>
                        <mxPoint x="1098" y="221" as="targetPoint"/>
                    </mxGeometry>
                </mxCell>
                <mxCell id="160" value="" style="endArrow=none;startArrow=none;endFill=0;startFill=0;endSize=8;html=1;verticalAlign=bottom;labelBackgroundColor=none;strokeWidth=3;exitX=1;exitY=0.3333333333333333;exitDx=0;exitDy=0;exitPerimeter=0;entryX=0;entryY=0.5;entryDx=0;entryDy=0;" edge="1" parent="1" source="146" target="152">
                    <mxGeometry width="160" relative="1" as="geometry">
                        <mxPoint x="938" y="221" as="sourcePoint"/>
                        <mxPoint x="1098" y="221" as="targetPoint"/>
                    </mxGeometry>
                </mxCell>
                <mxCell id="162" value="" style="endArrow=none;startArrow=none;endFill=0;startFill=0;endSize=8;html=1;verticalAlign=bottom;labelBackgroundColor=none;strokeWidth=3;exitX=1;exitY=0.3333333333333333;exitDx=0;exitDy=0;exitPerimeter=0;entryX=0;entryY=0.5;entryDx=0;entryDy=0;" edge="1" parent="1" source="147" target="153">
                    <mxGeometry width="160" relative="1" as="geometry">
                        <mxPoint x="896" y="221" as="sourcePoint"/>
                        <mxPoint x="1056" y="221" as="targetPoint"/>
                    </mxGeometry>
                </mxCell>
                <mxCell id="163" value="" style="endArrow=none;startArrow=none;endFill=0;startFill=0;endSize=8;html=1;verticalAlign=bottom;labelBackgroundColor=none;strokeWidth=3;exitX=1;exitY=0.3333333333333333;exitDx=0;exitDy=0;exitPerimeter=0;entryX=0;entryY=0.5;entryDx=0;entryDy=0;" edge="1" parent="1" source="147" target="152">
                    <mxGeometry width="160" relative="1" as="geometry">
                        <mxPoint x="896" y="221" as="sourcePoint"/>
                        <mxPoint x="1056" y="221" as="targetPoint"/>
                    </mxGeometry>
                </mxCell>
                <mxCell id="164" value="" style="endArrow=none;startArrow=none;endFill=0;startFill=0;endSize=8;html=1;verticalAlign=bottom;labelBackgroundColor=none;strokeWidth=3;exitX=1;exitY=0.3333333333333333;exitDx=0;exitDy=0;exitPerimeter=0;entryX=0;entryY=0.5;entryDx=0;entryDy=0;" edge="1" parent="1" source="147" target="151">
                    <mxGeometry width="160" relative="1" as="geometry">
                        <mxPoint x="896" y="221" as="sourcePoint"/>
                        <mxPoint x="1056" y="221" as="targetPoint"/>
                    </mxGeometry>
                </mxCell>
                <mxCell id="165" value="" style="endArrow=none;startArrow=none;endFill=0;startFill=0;endSize=8;html=1;verticalAlign=bottom;labelBackgroundColor=none;strokeWidth=3;exitX=1;exitY=0.3333333333333333;exitDx=0;exitDy=0;exitPerimeter=0;entryX=0;entryY=0.5;entryDx=0;entryDy=0;" edge="1" parent="1" source="147" target="149">
                    <mxGeometry width="160" relative="1" as="geometry">
                        <mxPoint x="896" y="221" as="sourcePoint"/>
                        <mxPoint x="1056" y="221" as="targetPoint"/>
                    </mxGeometry>
                </mxCell>
                <mxCell id="166" value="&amp;lt;&amp;lt;extend&amp;gt;&amp;gt;" style="html=1;verticalAlign=bottom;labelBackgroundColor=none;endArrow=open;endFill=0;dashed=1;exitX=0;exitY=0.5;exitDx=0;exitDy=0;entryX=1;entryY=0.5;entryDx=0;entryDy=0;exitPerimeter=0;" edge="1" parent="1" source="157" target="151">
                    <mxGeometry width="160" relative="1" as="geometry">
                        <mxPoint x="975" y="265" as="sourcePoint"/>
                        <mxPoint x="1135" y="265" as="targetPoint"/>
                    </mxGeometry>
                </mxCell>
                <mxCell id="167" value="&amp;lt;&amp;lt;extend&amp;gt;&amp;gt;" style="html=1;verticalAlign=bottom;labelBackgroundColor=none;endArrow=open;endFill=0;dashed=1;exitX=0;exitY=0.5;exitDx=0;exitDy=0;" edge="1" parent="1" source="155">
                    <mxGeometry width="160" relative="1" as="geometry">
                        <mxPoint x="1048" y="213.5" as="sourcePoint"/>
                        <mxPoint x="943" y="132.5" as="targetPoint"/>
                    </mxGeometry>
                </mxCell>
                <mxCell id="168" value="&amp;lt;&amp;lt;extend&amp;gt;&amp;gt;" style="html=1;verticalAlign=bottom;labelBackgroundColor=none;endArrow=open;endFill=0;dashed=1;exitX=0;exitY=0.5;exitDx=0;exitDy=0;entryX=0.94;entryY=0.256;entryDx=0;entryDy=0;entryPerimeter=0;" edge="1" parent="1" source="156" target="151">
                    <mxGeometry width="160" relative="1" as="geometry">
                        <mxPoint x="1106" y="217" as="sourcePoint"/>
                        <mxPoint x="962" y="159" as="targetPoint"/>
                    </mxGeometry>
                </mxCell>
                <mxCell id="169" value="Quản lý lịch hẹn bênh nhân" style="text;align=center;fontStyle=1;verticalAlign=middle;spacingLeft=3;spacingRight=3;strokeColor=none;rotatable=0;points=[[0,0.5],[1,0.5]];portConstraint=eastwest;" vertex="1" parent="1">
                    <mxGeometry x="882" y="835" width="80" height="26" as="geometry"/>
                </mxCell>
                <mxCell id="170" value="Admin" style="shape=umlActor;verticalLabelPosition=bottom;verticalAlign=top;html=1;" vertex="1" parent="1">
                    <mxGeometry x="644" y="520" width="30" height="60" as="geometry"/>
                </mxCell>
                <mxCell id="171" value="Doctor" style="shape=umlActor;verticalLabelPosition=bottom;verticalAlign=top;html=1;" vertex="1" parent="1">
                    <mxGeometry x="706" y="520" width="30" height="60" as="geometry"/>
                </mxCell>
                <mxCell id="172" value="Staff" style="shape=umlActor;verticalLabelPosition=bottom;verticalAlign=top;html=1;" vertex="1" parent="1">
                    <mxGeometry x="770" y="523" width="30" height="60" as="geometry"/>
                </mxCell>
                <mxCell id="177" value="Thêm lịch hẹn mới" style="ellipse;whiteSpace=wrap;html=1;" vertex="1" parent="1">
                    <mxGeometry x="885" y="458" width="140" height="70" as="geometry"/>
                </mxCell>
                <mxCell id="178" value="Xem chi tiết lịch hẹn" style="ellipse;whiteSpace=wrap;html=1;" vertex="1" parent="1">
                    <mxGeometry x="885" y="553" width="140" height="70" as="geometry"/>
                </mxCell>
                <mxCell id="179" value="Chỉnh sửa lịch hẹn" style="ellipse;whiteSpace=wrap;html=1;" vertex="1" parent="1">
                    <mxGeometry x="885" y="647" width="140" height="70" as="geometry"/>
                </mxCell>
                <mxCell id="180" value="Xóa lịch hẹn" style="ellipse;whiteSpace=wrap;html=1;" vertex="1" parent="1">
                    <mxGeometry x="885" y="741" width="140" height="70" as="geometry"/>
                </mxCell>
                <mxCell id="181" value="" style="endArrow=none;startArrow=none;endFill=0;startFill=0;endSize=8;html=1;verticalAlign=bottom;labelBackgroundColor=none;strokeWidth=3;exitX=1;exitY=0.3333333333333333;exitDx=0;exitDy=0;exitPerimeter=0;entryX=0;entryY=0.5;entryDx=0;entryDy=0;" edge="1" parent="1" source="172" target="177">
                    <mxGeometry width="160" relative="1" as="geometry">
                        <mxPoint x="892" y="675" as="sourcePoint"/>
                        <mxPoint x="1052" y="675" as="targetPoint"/>
                    </mxGeometry>
                </mxCell>
                <mxCell id="182" value="" style="endArrow=none;startArrow=none;endFill=0;startFill=0;endSize=8;html=1;verticalAlign=bottom;labelBackgroundColor=none;strokeWidth=3;exitX=1;exitY=0.3333333333333333;exitDx=0;exitDy=0;exitPerimeter=0;entryX=0;entryY=0.5;entryDx=0;entryDy=0;" edge="1" parent="1" source="172" target="178">
                    <mxGeometry width="160" relative="1" as="geometry">
                        <mxPoint x="892" y="675" as="sourcePoint"/>
                        <mxPoint x="887" y="587" as="targetPoint"/>
                    </mxGeometry>
                </mxCell>
                <mxCell id="183" value="" style="endArrow=none;startArrow=none;endFill=0;startFill=0;endSize=8;html=1;verticalAlign=bottom;labelBackgroundColor=none;strokeWidth=3;exitX=1;exitY=0.3333333333333333;exitDx=0;exitDy=0;exitPerimeter=0;entryX=0;entryY=0.5;entryDx=0;entryDy=0;" edge="1" parent="1" source="172" target="179">
                    <mxGeometry width="160" relative="1" as="geometry">
                        <mxPoint x="892" y="675" as="sourcePoint"/>
                        <mxPoint x="1052" y="675" as="targetPoint"/>
                    </mxGeometry>
                </mxCell>
                <mxCell id="184" value="" style="endArrow=none;startArrow=none;endFill=0;startFill=0;endSize=8;html=1;verticalAlign=bottom;labelBackgroundColor=none;strokeWidth=3;exitX=1;exitY=0.3333333333333333;exitDx=0;exitDy=0;exitPerimeter=0;entryX=0;entryY=0.5;entryDx=0;entryDy=0;" edge="1" parent="1" source="172" target="180">
                    <mxGeometry width="160" relative="1" as="geometry">
                        <mxPoint x="892" y="675" as="sourcePoint"/>
                        <mxPoint x="1052" y="675" as="targetPoint"/>
                    </mxGeometry>
                </mxCell>
                <mxCell id="185" value="Admin" style="shape=umlActor;verticalLabelPosition=bottom;verticalAlign=top;html=1;" vertex="1" parent="1">
                    <mxGeometry x="697" y="1106" width="30" height="60" as="geometry"/>
                </mxCell>
                <mxCell id="186" value="Doctor" style="shape=umlActor;verticalLabelPosition=bottom;verticalAlign=top;html=1;" vertex="1" parent="1">
                    <mxGeometry x="697" y="954" width="30" height="60" as="geometry"/>
                </mxCell>
                <mxCell id="191" value="Thêm hồ sơ đến thăm" style="ellipse;whiteSpace=wrap;html=1;" vertex="1" parent="1">
                    <mxGeometry x="855" y="912" width="140" height="70" as="geometry"/>
                </mxCell>
                <mxCell id="192" value="Xem hồ sơ đến thăm" style="ellipse;whiteSpace=wrap;html=1;" vertex="1" parent="1">
                    <mxGeometry x="855" y="996" width="140" height="70" as="geometry"/>
                </mxCell>
                <mxCell id="193" value="Chỉnh sửa hồ sơ đến thăm" style="ellipse;whiteSpace=wrap;html=1;" vertex="1" parent="1">
                    <mxGeometry x="855" y="1079" width="140" height="70" as="geometry"/>
                </mxCell>
                <mxCell id="194" value="Xóa hồ sơ đến thăm" style="ellipse;whiteSpace=wrap;html=1;" vertex="1" parent="1">
                    <mxGeometry x="855" y="1162" width="140" height="70" as="geometry"/>
                </mxCell>
                <mxCell id="196" value="Thêm hồ sơ đơn thuốc" style="ellipse;whiteSpace=wrap;html=1;" vertex="1" parent="1">
                    <mxGeometry x="1067" y="915" width="140" height="70" as="geometry"/>
                </mxCell>
                <mxCell id="197" value="Chỉnh sửa hồ sơ đơn thuốc" style="ellipse;whiteSpace=wrap;html=1;" vertex="1" parent="1">
                    <mxGeometry x="1063" y="996" width="140" height="70" as="geometry"/>
                </mxCell>
                <mxCell id="198" value="Xóa hồ sơ đơn thuốc" style="ellipse;whiteSpace=wrap;html=1;" vertex="1" parent="1">
                    <mxGeometry x="1063" y="1087" width="140" height="70" as="geometry"/>
                </mxCell>
                <mxCell id="199" value="" style="endArrow=none;startArrow=none;endFill=0;startFill=0;endSize=8;html=1;verticalAlign=bottom;labelBackgroundColor=none;strokeWidth=3;exitX=1;exitY=0.3333333333333333;exitDx=0;exitDy=0;exitPerimeter=0;entryX=0;entryY=0.5;entryDx=0;entryDy=0;" edge="1" parent="1" source="186" target="191">
                    <mxGeometry width="160" relative="1" as="geometry">
                        <mxPoint x="747" y="993" as="sourcePoint"/>
                        <mxPoint x="907" y="993" as="targetPoint"/>
                    </mxGeometry>
                </mxCell>
                <mxCell id="200" value="" style="endArrow=none;startArrow=none;endFill=0;startFill=0;endSize=8;html=1;verticalAlign=bottom;labelBackgroundColor=none;strokeWidth=3;exitX=1;exitY=0.3333333333333333;exitDx=0;exitDy=0;exitPerimeter=0;entryX=0;entryY=0.5;entryDx=0;entryDy=0;" edge="1" parent="1" source="186" target="192">
                    <mxGeometry width="160" relative="1" as="geometry">
                        <mxPoint x="732" y="1008" as="sourcePoint"/>
                        <mxPoint x="892" y="1008" as="targetPoint"/>
                    </mxGeometry>
                </mxCell>
                <mxCell id="201" value="" style="endArrow=none;startArrow=none;endFill=0;startFill=0;endSize=8;html=1;verticalAlign=bottom;labelBackgroundColor=none;strokeWidth=3;exitX=1;exitY=0.3333333333333333;exitDx=0;exitDy=0;exitPerimeter=0;entryX=0;entryY=0.5;entryDx=0;entryDy=0;" edge="1" parent="1" source="186" target="193">
                    <mxGeometry width="160" relative="1" as="geometry">
                        <mxPoint x="984" y="993" as="sourcePoint"/>
                        <mxPoint x="1144" y="993" as="targetPoint"/>
                    </mxGeometry>
                </mxCell>
                <mxCell id="202" value="" style="endArrow=none;startArrow=none;endFill=0;startFill=0;endSize=8;html=1;verticalAlign=bottom;labelBackgroundColor=none;strokeWidth=3;exitX=1;exitY=0.3333333333333333;exitDx=0;exitDy=0;exitPerimeter=0;entryX=0;entryY=0.5;entryDx=0;entryDy=0;" edge="1" parent="1" source="186" target="194">
                    <mxGeometry width="160" relative="1" as="geometry">
                        <mxPoint x="984" y="993" as="sourcePoint"/>
                        <mxPoint x="1144" y="993" as="targetPoint"/>
                    </mxGeometry>
                </mxCell>
                <mxCell id="203" value="&amp;lt;&amp;lt;include&amp;gt;&amp;gt;" style="html=1;verticalAlign=bottom;labelBackgroundColor=none;endArrow=open;endFill=0;dashed=1;exitX=1;exitY=0.5;exitDx=0;exitDy=0;entryX=0;entryY=0.457;entryDx=0;entryDy=0;entryPerimeter=0;" edge="1" parent="1" source="191" target="196">
                    <mxGeometry width="160" relative="1" as="geometry">
                        <mxPoint x="963" y="923" as="sourcePoint"/>
                        <mxPoint x="1123" y="923" as="targetPoint"/>
                    </mxGeometry>
                </mxCell>
                <mxCell id="204" value="&amp;lt;&amp;lt;extend&amp;gt;&amp;gt;" style="html=1;verticalAlign=bottom;labelBackgroundColor=none;endArrow=open;endFill=0;dashed=1;entryX=1;entryY=0;entryDx=0;entryDy=0;exitX=0;exitY=0.5;exitDx=0;exitDy=0;" edge="1" parent="1" source="197" target="193">
                    <mxGeometry width="160" relative="1" as="geometry">
                        <mxPoint x="1031" y="984" as="sourcePoint"/>
                        <mxPoint x="1149" y="993" as="targetPoint"/>
                    </mxGeometry>
                </mxCell>
                <mxCell id="205" value="&amp;lt;&amp;lt;extend&amp;gt;&amp;gt;" style="html=1;verticalAlign=bottom;labelBackgroundColor=none;endArrow=open;endFill=0;dashed=1;entryX=1;entryY=0.5;entryDx=0;entryDy=0;exitX=0;exitY=0.5;exitDx=0;exitDy=0;" edge="1" parent="1" source="198" target="193">
                    <mxGeometry width="160" relative="1" as="geometry">
                        <mxPoint x="989" y="993" as="sourcePoint"/>
                        <mxPoint x="1149" y="993" as="targetPoint"/>
                    </mxGeometry>
                </mxCell>
                <mxCell id="206" value="" style="endArrow=none;startArrow=none;endFill=0;startFill=0;endSize=8;html=1;verticalAlign=bottom;labelBackgroundColor=none;strokeWidth=3;exitX=1;exitY=0.3333333333333333;exitDx=0;exitDy=0;exitPerimeter=0;entryX=0;entryY=0.5;entryDx=0;entryDy=0;" edge="1" parent="1" source="185" target="191">
                    <mxGeometry width="160" relative="1" as="geometry">
                        <mxPoint x="943" y="1007" as="sourcePoint"/>
                        <mxPoint x="1103" y="1007" as="targetPoint"/>
                    </mxGeometry>
                </mxCell>
                <mxCell id="207" value="" style="endArrow=none;startArrow=none;endFill=0;startFill=0;endSize=8;html=1;verticalAlign=bottom;labelBackgroundColor=none;strokeWidth=3;exitX=1;exitY=0.3333333333333333;exitDx=0;exitDy=0;exitPerimeter=0;entryX=0;entryY=0.5;entryDx=0;entryDy=0;" edge="1" parent="1" source="185" target="192">
                    <mxGeometry width="160" relative="1" as="geometry">
                        <mxPoint x="943" y="1007" as="sourcePoint"/>
                        <mxPoint x="1103" y="1007" as="targetPoint"/>
                    </mxGeometry>
                </mxCell>
                <mxCell id="208" value="" style="endArrow=none;startArrow=none;endFill=0;startFill=0;endSize=8;html=1;verticalAlign=bottom;labelBackgroundColor=none;strokeWidth=3;exitX=1;exitY=0.3333333333333333;exitDx=0;exitDy=0;exitPerimeter=0;entryX=0;entryY=0.5;entryDx=0;entryDy=0;" edge="1" parent="1" source="185" target="193">
                    <mxGeometry width="160" relative="1" as="geometry">
                        <mxPoint x="943" y="1007" as="sourcePoint"/>
                        <mxPoint x="1103" y="1007" as="targetPoint"/>
                    </mxGeometry>
                </mxCell>
                <mxCell id="209" value="" style="endArrow=none;startArrow=none;endFill=0;startFill=0;endSize=8;html=1;verticalAlign=bottom;labelBackgroundColor=none;strokeWidth=3;exitX=1;exitY=0.3333333333333333;exitDx=0;exitDy=0;exitPerimeter=0;entryX=0;entryY=0.5;entryDx=0;entryDy=0;" edge="1" parent="1" source="185" target="194">
                    <mxGeometry width="160" relative="1" as="geometry">
                        <mxPoint x="943" y="1007" as="sourcePoint"/>
                        <mxPoint x="1103" y="1007" as="targetPoint"/>
                    </mxGeometry>
                </mxCell>
            </root>
        </mxGraphModel>
    </diagram>
</mxfile>